<mxfile host="Electron" modified="2023-09-15T12:42:12.463Z" agent="Mozilla/5.0 (Windows NT 10.0; Win64; x64) AppleWebKit/537.36 (KHTML, like Gecko) draw.io/21.6.5 Chrome/114.0.5735.243 Electron/25.3.1 Safari/537.36" etag="IrZnSFXBT1deFYKZy6Fg" version="21.6.5" type="device">
  <diagram name="LoadTesting" id="06328FP16ayAEmCesTP5">
    <mxGraphModel dx="1434" dy="1244" grid="0" gridSize="10" guides="0" tooltips="1" connect="1" arrows="1" fold="1" page="0" pageScale="1" pageWidth="827" pageHeight="1169" math="0" shadow="0">
      <root>
        <mxCell id="0" />
        <mxCell id="1" parent="0" />
        <mxCell id="hYtZMHF2msqS-tpn9zUh-21" value="Load Testing" style="text;html=1;strokeColor=default;fillColor=none;align=center;verticalAlign=middle;whiteSpace=wrap;rounded=0;fontStyle=1;fontSize=20;fontFamily=Comic Sans MS;" vertex="1" parent="1">
          <mxGeometry x="440" y="-6" width="310" height="53" as="geometry" />
        </mxCell>
        <mxCell id="hYtZMHF2msqS-tpn9zUh-42" value="" style="edgeStyle=orthogonalEdgeStyle;rounded=0;orthogonalLoop=1;jettySize=auto;html=1;entryX=0.5;entryY=0;entryDx=0;entryDy=0;" edge="1" parent="1" source="hYtZMHF2msqS-tpn9zUh-22" target="hYtZMHF2msqS-tpn9zUh-36">
          <mxGeometry relative="1" as="geometry">
            <mxPoint x="463" y="131" as="targetPoint" />
          </mxGeometry>
        </mxCell>
        <mxCell id="hYtZMHF2msqS-tpn9zUh-43" value="" style="edgeStyle=orthogonalEdgeStyle;rounded=0;orthogonalLoop=1;jettySize=auto;html=1;" edge="1" parent="1" source="hYtZMHF2msqS-tpn9zUh-22" target="hYtZMHF2msqS-tpn9zUh-39">
          <mxGeometry relative="1" as="geometry" />
        </mxCell>
        <mxCell id="hYtZMHF2msqS-tpn9zUh-44" value="" style="edgeStyle=orthogonalEdgeStyle;rounded=0;orthogonalLoop=1;jettySize=auto;html=1;entryX=0.5;entryY=0;entryDx=0;entryDy=0;" edge="1" parent="1" source="hYtZMHF2msqS-tpn9zUh-22" target="hYtZMHF2msqS-tpn9zUh-40">
          <mxGeometry relative="1" as="geometry">
            <mxPoint x="724" y="131" as="targetPoint" />
          </mxGeometry>
        </mxCell>
        <mxCell id="hYtZMHF2msqS-tpn9zUh-22" value="Master" style="rounded=1;whiteSpace=wrap;html=1;shadow=0;fontFamily=Comic Sans MS;fontSize=12;fillColor=#d5e8d4;strokeColor=#82b366;" vertex="1" parent="1">
          <mxGeometry x="543" y="108" width="101" height="46" as="geometry" />
        </mxCell>
        <mxCell id="hYtZMHF2msqS-tpn9zUh-36" value="Slave Node" style="rounded=1;whiteSpace=wrap;html=1;shadow=0;fontFamily=Comic Sans MS;fontSize=12;fillColor=#588557;strokeColor=#82b366;" vertex="1" parent="1">
          <mxGeometry x="369" y="240" width="101" height="46" as="geometry" />
        </mxCell>
        <mxCell id="hYtZMHF2msqS-tpn9zUh-45" value="" style="edgeStyle=orthogonalEdgeStyle;rounded=0;orthogonalLoop=1;jettySize=auto;html=1;" edge="1" parent="1" source="hYtZMHF2msqS-tpn9zUh-39" target="hYtZMHF2msqS-tpn9zUh-41">
          <mxGeometry relative="1" as="geometry" />
        </mxCell>
        <mxCell id="hYtZMHF2msqS-tpn9zUh-39" value="Slave Node" style="rounded=1;whiteSpace=wrap;html=1;shadow=0;fontFamily=Comic Sans MS;fontSize=12;fillColor=#588557;strokeColor=#82b366;" vertex="1" parent="1">
          <mxGeometry x="543" y="236" width="101" height="46" as="geometry" />
        </mxCell>
        <mxCell id="hYtZMHF2msqS-tpn9zUh-40" value="Slave Node" style="rounded=1;whiteSpace=wrap;html=1;shadow=0;fontFamily=Comic Sans MS;fontSize=12;fillColor=#588557;strokeColor=#82b366;" vertex="1" parent="1">
          <mxGeometry x="720" y="238" width="101" height="46" as="geometry" />
        </mxCell>
        <mxCell id="hYtZMHF2msqS-tpn9zUh-41" value="System Under Test" style="rounded=1;whiteSpace=wrap;html=1;shadow=0;fontFamily=Comic Sans MS;fontSize=12;fillColor=#f8cecc;strokeColor=#b85450;" vertex="1" parent="1">
          <mxGeometry x="543" y="355" width="101" height="46" as="geometry" />
        </mxCell>
        <mxCell id="hYtZMHF2msqS-tpn9zUh-46" value="" style="triangle;whiteSpace=wrap;html=1;direction=north;fillColor=#ffe6cc;strokeColor=#d79b00;" vertex="1" parent="1">
          <mxGeometry x="425" y="671" width="397" height="379" as="geometry" />
        </mxCell>
        <mxCell id="hYtZMHF2msqS-tpn9zUh-47" value="" style="endArrow=none;html=1;rounded=0;" edge="1" parent="1">
          <mxGeometry width="50" height="50" relative="1" as="geometry">
            <mxPoint x="489" y="926" as="sourcePoint" />
            <mxPoint x="755" y="922" as="targetPoint" />
          </mxGeometry>
        </mxCell>
        <mxCell id="hYtZMHF2msqS-tpn9zUh-48" value="" style="endArrow=none;html=1;rounded=0;" edge="1" parent="1">
          <mxGeometry width="50" height="50" relative="1" as="geometry">
            <mxPoint x="553" y="802" as="sourcePoint" />
            <mxPoint x="692" y="802" as="targetPoint" />
          </mxGeometry>
        </mxCell>
        <mxCell id="hYtZMHF2msqS-tpn9zUh-51" value="Test Pyramid" style="text;html=1;strokeColor=default;fillColor=none;align=center;verticalAlign=middle;whiteSpace=wrap;rounded=0;fontStyle=1;fontSize=20;fontFamily=Comic Sans MS;" vertex="1" parent="1">
          <mxGeometry x="557" y="527" width="310" height="53" as="geometry" />
        </mxCell>
        <mxCell id="hYtZMHF2msqS-tpn9zUh-52" value="&lt;font style=&quot;font-size: 14px;&quot;&gt;&lt;b&gt;Unit Tests&lt;/b&gt;&lt;/font&gt;" style="text;html=1;strokeColor=none;fillColor=none;align=center;verticalAlign=middle;whiteSpace=wrap;rounded=0;fontFamily=Comic Sans MS;" vertex="1" parent="1">
          <mxGeometry x="577" y="972" width="86" height="30" as="geometry" />
        </mxCell>
        <mxCell id="hYtZMHF2msqS-tpn9zUh-53" value="&lt;font style=&quot;font-size: 14px;&quot;&gt;&lt;b&gt;Integration Tests&lt;/b&gt;&lt;/font&gt;" style="text;html=1;strokeColor=none;fillColor=none;align=center;verticalAlign=middle;whiteSpace=wrap;rounded=0;fontFamily=Comic Sans MS;" vertex="1" parent="1">
          <mxGeometry x="561" y="864" width="121" height="30" as="geometry" />
        </mxCell>
        <mxCell id="hYtZMHF2msqS-tpn9zUh-54" value="&lt;font style=&quot;font-size: 14px;&quot;&gt;&lt;b&gt;End to End Tests&lt;/b&gt;&lt;/font&gt;" style="text;html=1;strokeColor=none;fillColor=none;align=center;verticalAlign=middle;whiteSpace=wrap;rounded=0;fontFamily=Comic Sans MS;" vertex="1" parent="1">
          <mxGeometry x="582" y="761" width="86" height="30" as="geometry" />
        </mxCell>
        <mxCell id="hYtZMHF2msqS-tpn9zUh-59" value="" style="group;fillColor=#dae8fc;strokeColor=#6c8ebf;" vertex="1" connectable="0" parent="1">
          <mxGeometry x="868" y="671" width="341" height="372" as="geometry" />
        </mxCell>
        <mxCell id="hYtZMHF2msqS-tpn9zUh-56" value="&lt;div style=&quot;text-align: justify;&quot;&gt;&lt;span style=&quot;background-color: initial;&quot;&gt;&lt;font face=&quot;Comic Sans MS&quot; style=&quot;font-size: 14px;&quot;&gt;&lt;b&gt;This is the replica of the production environment where we run end to end tests.&lt;/b&gt;&lt;/font&gt;&lt;/span&gt;&lt;/div&gt;&lt;div style=&quot;text-align: justify;&quot;&gt;&lt;span style=&quot;background-color: initial;&quot;&gt;&lt;font face=&quot;Comic Sans MS&quot; style=&quot;font-size: 14px;&quot;&gt;&lt;b&gt;Ex: Test Scenario&#39;s like Scraping the Email from the Email Service for the current user.&lt;/b&gt;&lt;/font&gt;&lt;/span&gt;&lt;/div&gt;" style="rounded=0;whiteSpace=wrap;html=1;fillColor=#e1d5e7;strokeColor=#9673a6;align=center;" vertex="1" parent="hYtZMHF2msqS-tpn9zUh-59">
          <mxGeometry width="341" height="108" as="geometry" />
        </mxCell>
        <mxCell id="hYtZMHF2msqS-tpn9zUh-57" value="&lt;div style=&quot;border-color: var(--border-color); text-align: justify;&quot;&gt;&lt;font style=&quot;border-color: var(--border-color); font-size: 14px;&quot; face=&quot;Comic Sans MS&quot;&gt;&lt;b style=&quot;border-color: var(--border-color);&quot;&gt;This is the environment used for validating the integration of the components.&lt;/b&gt;&lt;/font&gt;&lt;/div&gt;&lt;div style=&quot;border-color: var(--border-color); text-align: justify;&quot;&gt;&lt;span style=&quot;border-color: var(--border-color); background-color: initial;&quot;&gt;&lt;font style=&quot;border-color: var(--border-color); font-size: 14px;&quot; face=&quot;Comic Sans MS&quot;&gt;&lt;b style=&quot;border-color: var(--border-color);&quot;&gt;Ex: Test the integration of data sources.&lt;/b&gt;&lt;/font&gt;&lt;/span&gt;&lt;/div&gt;" style="rounded=0;whiteSpace=wrap;html=1;fillColor=#e1d5e7;strokeColor=#9673a6;" vertex="1" parent="hYtZMHF2msqS-tpn9zUh-59">
          <mxGeometry y="109" width="341" height="125" as="geometry" />
        </mxCell>
        <mxCell id="hYtZMHF2msqS-tpn9zUh-58" value="&lt;div style=&quot;border-color: var(--border-color); text-align: justify;&quot;&gt;&lt;font style=&quot;border-color: var(--border-color); font-size: 14px;&quot; face=&quot;Comic Sans MS&quot;&gt;&lt;b style=&quot;border-color: var(--border-color);&quot;&gt;This is the environment used for validating the componets at the level of functionality.&lt;/b&gt;&lt;/font&gt;&lt;/div&gt;&lt;div style=&quot;border-color: var(--border-color); text-align: justify;&quot;&gt;&lt;font style=&quot;border-color: var(--border-color); font-size: 14px;&quot; face=&quot;Comic Sans MS&quot;&gt;&lt;b style=&quot;border-color: var(--border-color);&quot;&gt;Ex: Check if the function to get the data is working or not.&lt;/b&gt;&lt;/font&gt;&lt;/div&gt;" style="rounded=0;whiteSpace=wrap;html=1;fillColor=#e1d5e7;strokeColor=#9673a6;" vertex="1" parent="hYtZMHF2msqS-tpn9zUh-59">
          <mxGeometry y="235" width="341" height="137" as="geometry" />
        </mxCell>
        <mxCell id="hYtZMHF2msqS-tpn9zUh-60" value="" style="group" vertex="1" connectable="0" parent="1">
          <mxGeometry x="348" y="662" width="60" height="389" as="geometry" />
        </mxCell>
        <mxCell id="hYtZMHF2msqS-tpn9zUh-49" value="&lt;font face=&quot;Comic Sans MS&quot;&gt;CI&lt;/font&gt;" style="rounded=0;whiteSpace=wrap;html=1;direction=south;fillColor=#d5e8d4;strokeColor=#82b366;" vertex="1" parent="hYtZMHF2msqS-tpn9zUh-60">
          <mxGeometry y="148" width="60" height="241" as="geometry" />
        </mxCell>
        <mxCell id="hYtZMHF2msqS-tpn9zUh-50" value="&lt;font face=&quot;Comic Sans MS&quot;&gt;CD&lt;/font&gt;" style="rounded=0;whiteSpace=wrap;html=1;direction=south;fillColor=#dae8fc;strokeColor=#6c8ebf;" vertex="1" parent="hYtZMHF2msqS-tpn9zUh-60">
          <mxGeometry width="60" height="147" as="geometry" />
        </mxCell>
      </root>
    </mxGraphModel>
  </diagram>
</mxfile>
